<svg xmlns="http://www.w3.org/2000/svg" viewBox="0 0 512 512"><rect width="512" height="512" rx="112" fill="#2f5d50"/><rect x="16" y="16" width="480" height="480" rx="98" fill="none" stroke="#284f44" stroke-width="16"/>
  <g transform="translate(256 262) scale(1) translate(-256 -262)">
    <g transform="rotate(-12 200 270)">
      <rect x="112" y="118" width="190" height="266" rx="22" fill="#ffffff" stroke="#d9d9d4" stroke-width="4"/>
      <text x="138" y="182" font-family="Arial, Helvetica, sans-serif" font-weight="700" font-size="58" fill="#b4443c">K</text>
      <path transform="translate(-86 -30) scale(0.9) translate(28 36)" d="M252 332c-28-22-48-40-48-62 0-16 12-28 27-28 9 0 17 5 21 12 4-7 12-12 21-12 15 0 27 12 27 28 0 22-20 40-48 62z" fill="#b4443c"/>
    </g>
    <g transform="rotate(10 312 262)">
      <rect x="214" y="128" width="190" height="266" rx="22" fill="#ffffff" stroke="#d9d9d4" stroke-width="4"/>
      <text x="240" y="192" font-family="Arial, Helvetica, sans-serif" font-weight="700" font-size="58" fill="#1f2328">A</text>
      <path d="M352 268c-30 22-52 40-52 62 0 16 12 28 27 28 10 0 18-5 22-12-2 14-7 24-15 32h36c-8-8-13-18-15-32 4 7 12 12 22 12 15 0 27-12 27-28 0-22-22-40-52-62z" fill="#1f2328"/>
    </g>
  </g></svg>